Coordinates
version=1
nRows=8
nColumns=40
inDegrees=yes

Units are S.I. units (second, meters, Newtons, ...)
If the header above contains a line with 'inDegrees', this indicates whether rotational values are in degrees (yes) or radians (no).

endheader
time	pelvis_tilt	pelvis_list	pelvis_rotation	pelvis_tx	pelvis_ty	pelvis_tz	hip_flexion_r	hip_adduction_r	hip_rotation_r	knee_angle_r	knee_angle_r_beta	ankle_angle_r	subtalar_angle_r	mtp_angle_r	hip_flexion_l	hip_adduction_l	hip_rotation_l	knee_angle_l	knee_angle_l_beta	ankle_angle_l	subtalar_angle_l	mtp_angle_l	lumbar_extension	lumbar_bending	lumbar_rotation	arm_flex_r	arm_add_r	arm_rot_r	elbow_flex_r	pro_sup_r	wrist_flex_r	wrist_dev_r	arm_flex_l	arm_add_l	arm_rot_l	elbow_flex_l	pro_sup_l	wrist_flex_l	wrist_dev_l
      2.65500000	     -3.12540305	     -2.59184740	     -0.40366476	      0.17223767	      0.40825450	     -1.23219107	    103.31282830	    -48.46476025	     28.67082333	    125.01642835	      2.18194829	     38.17555740	     12.54062356	      0.00000000	    109.43248460	    -44.70910038	     35.46615000	    129.50458820	      2.26028146	     34.36129849	     26.52727580	      0.00000000	    -32.28698993	      3.87646873	     -6.44029881	     44.99992434	    -14.99999999	     44.99992434	     75.00017585	     45.00000026	      0.00000000	      0.00000000	     44.99992434	    -14.99999999	     44.99992434	     75.00017585	     45.00000026	      0.00000000	      0.00000000
      2.66000000	     -3.42157126	     -2.63409952	     -0.43762353	      0.17181413	      0.40941481	     -1.23200088	    103.28993291	    -48.40116740	     28.27421561	    124.84535526	      2.17896251	     38.06400745	     12.42868866	      0.00000000	    109.58996202	    -44.70633928	     35.27368157	    129.28072504	      2.25637431	     34.24239502	     26.35812279	      0.00000000	    -31.96748566	      3.86363903	     -6.42867719	     44.99992434	    -14.99999999	     44.99992434	     75.00017585	     45.00000026	      0.00000000	      0.00000000	     44.99992434	    -14.99999999	     44.99992434	     75.00017585	     45.00000026	      0.00000000	      0.00000000
      2.66500000	     -3.69835914	     -2.70275004	     -0.42885347	      0.17139241	      0.41069492	     -1.23192695	    103.19323531	    -48.39559223	     27.84309541	    124.65237736	      2.17559441	     37.96837639	     12.38964507	      0.00000000	    109.72540312	    -44.65165965	     35.08695532	    129.05045529	      2.25235535	     34.08603309	     26.17985928	      0.00000000	    -31.64377267	      3.99186920	     -6.33637188	     44.99992434	    -14.99999999	     44.99992434	     75.00017585	     45.00000026	      0.00000000	      0.00000000	     44.99992434	    -14.99999999	     44.99992434	     75.00017585	     45.00000026	      0.00000000	      0.00000000
      2.67000000	     -3.88613780	     -2.68416207	     -0.45969594	      0.17088961	      0.41234355	     -1.23163390	    103.07256073	    -48.33414037	     27.50347153	    124.44938321	      2.17205149	     37.88488820	     12.36892176	      0.00000000	    109.62742479	    -44.71315498	     34.74043204	    128.77499419	      2.24754764	     33.98002898	     26.01711537	      0.00000000	    -31.46493653	      3.90785436	     -6.32288457	     44.99992434	    -14.99999999	     44.99992434	     75.00017585	     45.00000026	      0.00000000	      0.00000000	     44.99992434	    -14.99999999	     44.99992434	     75.00017585	     45.00000026	      0.00000000	      0.00000000
      2.67500000	     -4.14247566	     -2.70254579	     -0.46580887	      0.17046956	      0.41388783	     -1.23142174	    102.97635086	    -48.30077718	     27.11614805	    124.24456594	      2.16847675	     37.76098473	     12.32468528	      0.00000000	    109.64898255	    -44.72105156	     34.45374951	    128.50902806	      2.24290566	     33.84867233	     25.86223320	      0.00000000	    -31.16659031	      3.89103490	     -6.31744609	     44.99992434	    -14.99999999	     44.99992434	     75.00017585	     45.00000026	      0.00000000	      0.00000000	     44.99992434	    -14.99999999	     44.99992434	     75.00017585	     45.00000026	      0.00000000	      0.00000000
      2.68000000	     -4.42348996	     -2.76320645	     -0.48324815	      0.17000909	      0.41550102	     -1.23125489	    102.83917855	    -48.27735391	     26.62192353	    124.01912074	      2.16454199	     37.62966143	     12.30092740	      0.00000000	    109.72840835	    -44.71666852	     34.20927146	    128.22867872	      2.23801264	     33.69818835	     25.63909317	      0.00000000	    -30.85641595	      3.97305518	     -6.22948276	     44.99992434	    -14.99999999	     44.99992434	     75.00017585	     45.00000026	      0.00000000	      0.00000000	     44.99992434	    -14.99999999	     44.99992434	     75.00017585	     45.00000026	      0.00000000	      0.00000000
      2.68500000	     -4.69240929	     -2.77295351	     -0.49331328	      0.16953694	      0.41724881	     -1.23100812	    102.72866883	    -48.23317055	     26.19716672	    123.78862535	      2.16051909	     37.50415162	     12.20569809	      0.00000000	    109.71507526	    -44.73281291	     33.86684478	    127.92968359	      2.23279419	     33.55427870	     25.44223784	      0.00000000	    -30.54631376	      3.96172187	     -6.18473612	     44.99992434	    -14.99999999	     44.99992434	     75.00017585	     45.00000026	      0.00000000	      0.00000000	     44.99992434	    -14.99999999	     44.99992434	     75.00017585	     45.00000026	      0.00000000	      0.00000000
      2.69000000	     -5.12265294	     -2.85280236	     -0.52390331	      0.16911065	      0.41864474	     -1.23089563	    102.71471221	    -48.17538787	     25.66450241	    123.54030337	      2.15618505	     37.35341446	     12.10775178	      0.00000000	    109.98628905	    -44.68829864	     33.67023485	    127.65563735	      2.22801118	     33.37636426	     25.21422619	      0.00000000	    -30.00863366	      4.16276834	     -5.96040735	     44.99992434	    -14.99999999	     44.99992434	     75.00017585	     45.00000026	      0.00000000	      0.00000000	     44.99992434	    -14.99999999	     44.99992434	     75.00017585	     45.00000026	      0.00000000	      0.00000000
